<svg width="21" height="20" viewBox="0 0 21 20" fill="none" xmlns="http://www.w3.org/2000/svg">
<circle cx="10.5" cy="10" r="10" fill="#E10E0E"/>
<g clip-path="url(#clip0_556_55)">
<path d="M10.4999 4.3374C7.36865 4.3374 4.8374 6.86865 4.8374 9.9999C4.8374 13.1312 7.36865 15.6812 10.4999 15.6812C13.6312 15.6812 16.1812 13.1312 16.1812 9.9999C16.1812 6.86865 13.6312 4.3374 10.4999 4.3374ZM10.4999 14.8374C7.8374 14.8374 5.68115 12.6624 5.68115 9.9999C5.68115 7.3374 7.8374 5.18115 10.4999 5.18115C13.1624 5.18115 15.3374 7.35615 15.3374 10.0187C15.3374 12.6624 13.1624 14.8374 10.4999 14.8374Z" fill="white"/>
<path d="M12.2247 8.25596C12.056 8.08721 11.7935 8.08721 11.6247 8.25596L10.4997 9.39971L9.35596 8.25596C9.18721 8.08721 8.92471 8.08721 8.75596 8.25596C8.58721 8.42471 8.58721 8.68721 8.75596 8.85596L9.89971 9.99971L8.75596 11.1435C8.58721 11.3122 8.58721 11.5747 8.75596 11.7435C8.83096 11.8185 8.94346 11.8747 9.05596 11.8747C9.16846 11.8747 9.28096 11.8372 9.35596 11.7435L10.4997 10.5997L11.6435 11.7435C11.7185 11.8185 11.831 11.8747 11.9435 11.8747C12.056 11.8747 12.1685 11.8372 12.2435 11.7435C12.4122 11.5747 12.4122 11.3122 12.2435 11.1435L11.0997 9.99971L12.2435 8.85596C12.3935 8.68721 12.3935 8.42471 12.2247 8.25596Z" fill="white"/>
</g>
<defs>
<clipPath id="clip0_556_55">
<rect width="12" height="12" fill="white" transform="translate(4.5 4)"/>
</clipPath>
</defs>
</svg>
