<svg width="22" height="18" viewBox="0 0 22 18" fill="none" xmlns="http://www.w3.org/2000/svg">
<path fill-rule="evenodd" clip-rule="evenodd" d="M5.76784 0.25H16.232C17.0449 0.249993 17.7005 0.249987 18.2314 0.293364C18.778 0.338026 19.2582 0.432385 19.7024 0.658726C20.408 1.01825 20.9817 1.59193 21.3412 2.29754C21.5639 2.73456 21.6588 3.20634 21.7044 3.74201C21.7552 3.88059 21.7629 4.02901 21.7307 4.16865C21.75 4.61996 21.7499 5.14824 21.7499 5.76788V12.2321C21.75 13.045 21.75 13.7006 21.7066 14.2315C21.6619 14.7781 21.5676 15.2582 21.3412 15.7025C20.9817 16.4081 20.408 16.9818 19.7024 17.3413C19.2582 17.5676 18.778 17.662 18.2314 17.7066C17.7005 17.75 17.0449 17.75 16.2321 17.75H5.76782C4.95499 17.75 4.29938 17.75 3.76847 17.7066C3.22184 17.662 2.7417 17.5676 2.29748 17.3413C1.59187 16.9818 1.01819 16.4081 0.658668 15.7025C0.432327 15.2582 0.337968 14.7781 0.293306 14.2315C0.249929 13.7006 0.249935 13.0449 0.249942 12.2321V5.7679C0.249936 5.14825 0.249932 4.61998 0.269146 4.16866C0.236964 4.02902 0.244659 3.88059 0.295517 3.742C0.341061 3.20634 0.435996 2.73455 0.658668 2.29754C1.01819 1.59193 1.59187 1.01825 2.29748 0.658726C2.7417 0.432385 3.22184 0.338026 3.76847 0.293364C4.29938 0.249987 4.955 0.249993 5.76784 0.25ZM1.7501 5.4406C1.74995 5.55509 1.74994 5.67476 1.74994 5.8V12.2C1.74994 13.0525 1.75053 13.6467 1.78832 14.1093C1.82541 14.5632 1.89454 14.824 1.99518 15.0215C2.21089 15.4448 2.5551 15.789 2.97846 16.0048C3.17598 16.1054 3.43675 16.1745 3.89062 16.2116C4.35325 16.2494 4.94749 16.25 5.79994 16.25H16.1999C17.0524 16.25 17.6466 16.2494 18.1093 16.2116C18.5631 16.1745 18.8239 16.1054 19.0214 16.0048C19.4448 15.789 19.789 15.4448 20.0047 15.0215C20.1053 14.824 20.1745 14.5632 20.2116 14.1093C20.2494 13.6467 20.2499 13.0525 20.2499 12.2V5.8C20.2499 5.67476 20.2499 5.55509 20.2498 5.4406L13.2651 10.3299C13.2311 10.3537 13.1976 10.3772 13.1645 10.4004C12.603 10.7942 12.1627 11.103 11.6651 11.227C11.2283 11.3359 10.7715 11.3359 10.3348 11.227C9.83716 11.103 9.39684 10.7942 8.83539 10.4004C8.80228 10.3772 8.76875 10.3537 8.73477 10.3299L1.7501 5.4406ZM20.1871 3.65347L12.4049 9.10102C11.6929 9.59942 11.4945 9.72367 11.3023 9.77158C11.1038 9.82106 10.8961 9.82106 10.6976 9.77158C10.5054 9.72367 10.307 9.59942 9.59496 9.10102L1.81274 3.65347C1.85262 3.34063 1.91353 3.13876 1.99518 2.97852C2.21089 2.55516 2.5551 2.21095 2.97846 1.99524C3.17598 1.8946 3.43675 1.82547 3.89062 1.78838C4.35325 1.75058 4.94749 1.75 5.79994 1.75H16.1999C17.0524 1.75 17.6466 1.75058 18.1093 1.78838C18.5631 1.82547 18.8239 1.8946 19.0214 1.99524C19.4448 2.21095 19.789 2.55516 20.0047 2.97852C20.0864 3.13876 20.1473 3.34063 20.1871 3.65347Z" fill="#E5E7EB"/>
</svg>
