<svg width="58" height="18" viewBox="0 0 58 18" fill="none" xmlns="http://www.w3.org/2000/svg">
<path d="M14.9629 0.423096H16.6526C17.2426 0.423096 17.8084 0.657875 18.2256 1.07578C18.6427 1.49369 18.8771 2.0605 18.8771 2.65151V17.5695H14.9629V0.423096Z" fill="#111928"/>
<path d="M4.33739 13.7845V2.56898C4.33739 2.28718 4.28198 2.00814 4.17433 1.74779C4.06668 1.48743 3.9089 1.25087 3.70999 1.05161C3.51108 0.852347 3.27495 0.694282 3.01506 0.586441C2.75517 0.478601 2.47663 0.423096 2.19533 0.423096L0.422363 0.423096V15.3428C0.422363 15.9338 0.656724 16.5006 1.07389 16.9185C1.49105 17.3364 2.05685 17.5712 2.64681 17.5712H12.4237V13.7845H4.33739Z" fill="#111928"/>
<path d="M57.5774 4.21471V0.429698H49.492V0.423096H47.7989C47.2089 0.423096 46.6432 0.657875 46.226 1.07578C45.8088 1.49369 45.5745 2.0605 45.5745 2.65151V15.4236C45.5745 15.9928 45.8001 16.5386 46.2019 16.941C46.6036 17.3435 47.1484 17.5695 47.7165 17.5695H49.492V17.5539H57.5774V13.7688H49.492V10.7976H57.5774V7.01096H49.492V4.21471H57.5774Z" fill="#111928"/>
<path d="M37.5254 0.428833L34.3947 3.61052C34.2098 3.79807 34.0636 4.02032 33.9646 4.26454C33.8656 4.50876 33.8157 4.77015 33.8177 5.03373C33.8197 5.29731 33.8736 5.55791 33.9762 5.8006C34.0789 6.04329 34.2284 6.26331 34.4161 6.44804C34.6036 6.63306 34.8257 6.77921 35.0696 6.87813C35.3136 6.97704 35.5747 7.02677 35.8378 7.02447C36.101 7.02217 36.3612 6.96788 36.6034 6.86472C36.8456 6.76156 37.0651 6.61155 37.2494 6.42328L43.1425 0.428833H37.5254Z" fill="#111928"/>
<path d="M34.0725 7.46073L26.9757 0.428833H21.291L29.8345 8.90095L21.3091 17.5381L21.3446 17.5736H26.9007L34.0882 10.2941C34.4609 9.91616 34.6685 9.40545 34.6656 8.87418C34.6627 8.34292 34.4494 7.83454 34.0725 7.46073Z" fill="#111928"/>
<path d="M43.4975 17.5737L37.1439 11.3011C36.9569 11.1164 36.7354 10.9703 36.492 10.8712C36.2487 10.7722 35.9883 10.7222 35.7256 10.724C35.4629 10.7259 35.2032 10.7796 34.9613 10.882C34.7193 10.9844 34.4999 11.1336 34.3155 11.321C33.9432 11.6994 33.7361 12.2104 33.7398 12.7418C33.7435 13.2731 33.9577 13.7812 34.3353 14.1543L37.8005 17.577L43.4975 17.5737Z" fill="#111928"/>
</svg>
