<svg width="22" height="22" viewBox="0 0 22 22" fill="none" xmlns="http://www.w3.org/2000/svg">
<rect x="1" y="1" width="20" height="20" rx="10" stroke="#E5E7EB" stroke-width="1.5"/>
<path fill-rule="evenodd" clip-rule="evenodd" d="M16.9862 6.82844C17.0164 6.64534 16.9969 6.4575 16.9298 6.28449C16.8627 6.11149 16.7504 5.95964 16.6047 5.84477C16.4589 5.7299 16.2851 5.65622 16.1012 5.6314C15.9173 5.60657 15.7301 5.63152 15.5591 5.70364L3.73006 10.6843C2.90548 11.0316 2.86328 12.2241 3.73006 12.5839C4.58833 12.9418 5.45912 13.269 6.34075 13.5648C7.14872 13.8318 8.03002 14.0787 8.7363 14.1486C8.9293 14.3797 9.17211 14.6024 9.41976 14.8058C9.79815 15.1171 10.2533 15.4374 10.7237 15.7445C11.6659 16.3602 12.7111 16.9488 13.4153 17.3321C14.2572 17.7886 15.2651 17.2629 15.4159 16.3449L16.9862 6.82844ZM5.05616 11.6272L15.5183 7.22205L14.0532 16.1042C13.3621 15.7286 12.3666 15.1662 11.4798 14.5865C11.0711 14.3241 10.6765 14.0403 10.2976 13.7363C10.1963 13.6536 10.098 13.5673 10.0029 13.4776L12.743 10.7383C12.8728 10.6085 12.9457 10.4326 12.9458 10.2491C12.9459 10.0656 12.873 9.88956 12.7433 9.75976C12.6136 9.62996 12.4376 9.557 12.2541 9.55693C12.0706 9.55687 11.8946 9.6297 11.7648 9.75941L8.76467 12.7596C8.25692 12.6945 7.54994 12.5064 6.77379 12.2504C6.19596 12.0579 5.62344 11.8499 5.05685 11.6265L5.05616 11.6272Z" fill="#E5E7EB"/>
</svg>
