<svg width="20" height="20" viewBox="0 0 20 20" fill="none" xmlns="http://www.w3.org/2000/svg">
<path d="M17.05 2.91006C16.1332 1.98399 15.0412 1.24973 13.8377 0.750111C12.6341 0.250494 11.3432 -0.00448012 10.04 5.95696e-05C4.58005 5.95696e-05 0.130049 4.45006 0.130049 9.91006C0.130049 11.6601 0.590049 13.3601 1.45005 14.8601L0.0500488 20.0001L5.30005 18.6201C6.75005 19.4101 8.38005 19.8301 10.04 19.8301C15.5 19.8301 19.9501 15.3801 19.9501 9.92006C19.9501 7.27006 18.92 4.78006 17.05 2.91006ZM10.04 18.1501C8.56005 18.1501 7.11005 17.7501 5.84005 17.0001L5.54005 16.8201L2.42005 17.6401L3.25005 14.6001L3.05005 14.2901C2.2278 12.977 1.79119 11.4593 1.79005 9.91006C1.79005 5.37006 5.49005 1.67006 10.03 1.67006C12.23 1.67006 14.3 2.53006 15.85 4.09006C16.6175 4.85402 17.2257 5.76272 17.6394 6.76348C18.0531 7.76425 18.2641 8.83717 18.26 9.92006C18.2801 14.4601 14.58 18.1501 10.04 18.1501ZM14.56 11.9901C14.31 11.8701 13.09 11.2701 12.87 11.1801C12.64 11.1001 12.48 11.0601 12.31 11.3001C12.14 11.5501 11.67 12.1101 11.53 12.2701C11.39 12.4401 11.24 12.4601 10.99 12.3301C10.74 12.2101 9.94005 11.9401 9.00005 11.1001C8.26005 10.4401 7.77005 9.63006 7.62005 9.38006C7.48005 9.13006 7.60005 9.00006 7.73005 8.87006C7.84005 8.76006 7.98005 8.58006 8.10005 8.44006C8.22005 8.30006 8.27005 8.19006 8.35005 8.03006C8.43005 7.86006 8.39005 7.72006 8.33005 7.60006C8.27005 7.48006 7.77005 6.26006 7.57005 5.76006C7.37005 5.28006 7.16005 5.34006 7.01005 5.33006H6.53005C6.36005 5.33006 6.10005 5.39006 5.87005 5.64006C5.65005 5.89006 5.01005 6.49006 5.01005 7.71006C5.01005 8.93006 5.90005 10.1101 6.02005 10.2701C6.14005 10.4401 7.77005 12.9401 10.25 14.0101C10.84 14.2701 11.3 14.4201 11.66 14.5301C12.25 14.7201 12.79 14.6901 13.22 14.6301C13.7 14.5601 14.69 14.0301 14.89 13.4501C15.1 12.8701 15.1 12.3801 15.03 12.2701C14.96 12.1601 14.81 12.1101 14.56 11.9901Z" fill="#E5E7EB"/>
</svg>
