<svg width="75" height="28" viewBox="0 0 75 28" fill="none" xmlns="http://www.w3.org/2000/svg">
<path d="M20.9568 3.99365H22.9282C23.6165 3.99365 24.2766 4.26756 24.7632 4.75512C25.2499 5.24268 25.5234 5.90396 25.5234 6.59347V23.9978H20.9568V3.99365Z" fill="white"/>
<path d="M8.56045 19.582V6.49718C8.56045 6.16842 8.49581 5.84287 8.37022 5.53912C8.24463 5.23538 8.06055 4.95939 7.82849 4.72692C7.59643 4.49445 7.32093 4.31004 7.01773 4.18422C6.71453 4.05841 6.38956 3.99365 6.06138 3.99365L3.99292 3.99365V21.3999C3.99292 22.0895 4.26634 22.7507 4.75303 23.2383C5.23972 23.7258 5.89982 23.9998 6.58811 23.9998H17.9944V19.582H8.56045Z" fill="white"/>
<path d="M70.6738 8.4172V4.00136H61.2408V3.99365H59.2656C58.5773 3.99365 57.9172 4.26756 57.4305 4.75512C56.9438 5.24268 56.6704 5.90396 56.6704 6.59347V21.4943C56.6704 22.1583 56.9337 22.7951 57.4024 23.2646C57.871 23.7341 58.5067 23.9978 59.1695 23.9978H61.2408V23.9795H70.6738V19.5637H61.2408V16.0973H70.6738V11.6795H61.2408V8.4172H70.6738Z" fill="white"/>
<path d="M47.2797 4.00049L43.6272 7.71246C43.4115 7.93127 43.241 8.19056 43.1255 8.47548C43.01 8.7604 42.9517 9.06536 42.954 9.37287C42.9564 9.68038 43.0192 9.98442 43.139 10.2676C43.2588 10.5507 43.4332 10.8074 43.6522 11.0229C43.8709 11.2388 44.13 11.4093 44.4147 11.5247C44.6993 11.6401 45.0039 11.6981 45.3109 11.6954C45.6179 11.6927 45.9214 11.6294 46.204 11.509C46.4866 11.3887 46.7427 11.2137 46.9577 10.994L53.833 4.00049H47.2797Z" fill="white"/>
<path d="M43.2513 12.2044L34.9717 4.00049H28.3396L38.307 13.8846L28.3607 23.9613L28.4021 24.0027H34.8843L43.2696 15.51C43.7044 15.069 43.9467 14.4732 43.9433 13.8534C43.9399 13.2336 43.691 12.6405 43.2513 12.2044Z" fill="white"/>
<path d="M54.2473 24.0026L46.8346 16.6846C46.6165 16.469 46.3581 16.2985 46.0742 16.183C45.7903 16.0675 45.4864 16.0091 45.18 16.0113C44.8736 16.0134 44.5706 16.076 44.2883 16.1955C44.006 16.315 43.75 16.489 43.5349 16.7077C43.1005 17.1492 42.8589 17.7454 42.8632 18.3653C42.8675 18.9852 43.1174 19.578 43.558 20.0133L47.6007 24.0064L54.2473 24.0026Z" fill="white"/>
</svg>
