<svg width="138" height="44" viewBox="0 0 138 44" fill="none" xmlns="http://www.w3.org/2000/svg">
<path d="M109.925 34.5163C109.082 34.5163 108.397 34.3265 107.87 33.9471C107.343 33.5676 107.023 33.0343 106.909 32.3471L108.464 32.1067C108.545 32.444 108.722 32.7096 108.996 32.9036C109.27 33.0975 109.615 33.1945 110.033 33.1945C110.4 33.1945 110.682 33.1228 110.88 32.9795C111.083 32.8319 111.184 32.6316 111.184 32.3787C111.184 32.2227 111.146 32.0983 111.07 32.0055C110.998 31.9086 110.838 31.8158 110.589 31.7273C110.341 31.6387 109.959 31.527 109.445 31.3921C108.871 31.2403 108.416 31.078 108.079 30.9051C107.741 30.7281 107.499 30.5194 107.351 30.279C107.204 30.0387 107.13 29.7478 107.13 29.4063C107.13 28.9805 107.242 28.6094 107.465 28.2932C107.689 27.977 108.001 27.7346 108.401 27.5659C108.802 27.3931 109.274 27.3066 109.818 27.3066C110.349 27.3066 110.819 27.3889 111.228 27.5533C111.641 27.7177 111.974 27.9517 112.227 28.2553C112.48 28.5588 112.636 28.9151 112.695 29.3241L111.14 29.6023C111.102 29.3114 110.969 29.0816 110.741 28.913C110.518 28.7443 110.218 28.6495 109.843 28.6284C109.485 28.6073 109.196 28.6621 108.977 28.7928C108.757 28.9193 108.648 29.0985 108.648 29.3304C108.648 29.4611 108.692 29.5728 108.781 29.6656C108.869 29.7583 109.046 29.8511 109.312 29.9438C109.582 30.0366 109.982 30.1504 110.514 30.2854C111.057 30.4245 111.492 30.5847 111.816 30.766C112.145 30.9431 112.381 31.156 112.525 31.4047C112.672 31.6535 112.746 31.955 112.746 32.3091C112.746 32.9963 112.495 33.536 111.993 33.9281C111.496 34.3202 110.807 34.5163 109.925 34.5163Z" fill="#28272B"/>
<path d="M104.095 34.326V31.0374C104.095 30.8224 104.08 30.5842 104.05 30.3228C104.021 30.0614 103.951 29.8105 103.842 29.5702C103.736 29.3257 103.576 29.1254 103.361 28.9694C103.15 28.8134 102.864 28.7354 102.501 28.7354C102.307 28.7354 102.115 28.767 101.925 28.8303C101.736 28.8935 101.563 29.0031 101.407 29.1591C101.255 29.3109 101.133 29.5217 101.04 29.7916C100.947 30.0572 100.901 30.3987 100.901 30.8161L99.9965 30.4303C99.9965 29.8485 100.108 29.3215 100.332 28.8492C100.559 28.377 100.892 28.0018 101.331 27.7235C101.769 27.441 102.309 27.2998 102.95 27.2998C103.456 27.2998 103.873 27.3841 104.202 27.5528C104.531 27.7214 104.792 27.9364 104.986 28.1978C105.18 28.4592 105.324 28.7375 105.416 29.0326C105.509 29.3278 105.568 29.6082 105.593 29.8738C105.623 30.1352 105.638 30.3481 105.638 30.5125V34.326H104.095ZM99.3578 34.326V27.4959H100.717V29.6145H100.901V34.326H99.3578Z" fill="#28272B"/>
<path d="M94.5682 34.5163C93.8852 34.5163 93.2886 34.3624 92.7785 34.0546C92.2683 33.7468 91.872 33.3231 91.5895 32.7834C91.3113 32.2395 91.1721 31.6156 91.1721 30.9115C91.1721 30.1947 91.3155 29.5665 91.6022 29.0268C91.8889 28.4872 92.2873 28.0655 92.7974 27.762C93.3076 27.4584 93.8979 27.3066 94.5682 27.3066C95.2555 27.3066 95.8542 27.4605 96.3643 27.7683C96.8745 28.0761 97.2708 28.5019 97.5533 29.0458C97.8358 29.5855 97.977 30.2074 97.977 30.9115C97.977 31.6198 97.8336 32.2459 97.5469 32.7898C97.2645 33.3294 96.8681 33.7531 96.358 34.0609C95.8478 34.3645 95.2513 34.5163 94.5682 34.5163ZM94.5682 33.087C95.1754 33.087 95.6265 32.8846 95.9216 32.4799C96.2167 32.0751 96.3643 31.5523 96.3643 30.9115C96.3643 30.2495 96.2146 29.7225 95.9153 29.3304C95.6159 28.9341 95.1669 28.7359 94.5682 28.7359C94.1593 28.7359 93.822 28.8287 93.5564 29.0142C93.295 29.1955 93.101 29.4506 92.9745 29.7794C92.848 30.1041 92.7848 30.4814 92.7848 30.9115C92.7848 31.5734 92.9345 32.1025 93.2338 32.4988C93.5374 32.8909 93.9822 33.087 94.5682 33.087Z" fill="#28272B"/>
<path d="M88.1332 26.4592V25.0615H89.6573V26.4592H88.1332ZM88.1332 34.3265V27.4964H89.6573V34.3265H88.1332Z" fill="#28272B"/>
<path d="M86.5379 34.3266C86.0868 34.4109 85.6441 34.4467 85.2098 34.4341C84.7798 34.4256 84.394 34.3476 84.0525 34.2001C83.711 34.0483 83.4517 33.8101 83.2746 33.4854C83.1186 33.1903 83.0364 32.8889 83.028 32.5811C83.0195 32.2733 83.0153 31.9255 83.0153 31.5376V25.5991H84.5331V31.449C84.5331 31.7231 84.5352 31.9634 84.5394 32.17C84.5479 32.3766 84.5922 32.5452 84.6723 32.6759C84.824 32.9289 85.0665 33.0702 85.3995 33.0997C85.7326 33.1292 86.1121 33.1123 86.5379 33.0491V34.3266ZM81.7758 28.6917V27.4964H86.5379V28.6917H81.7758Z" fill="#28272B"/>
<path d="M77.1569 34.5163C76.6636 34.5163 76.2462 34.4235 75.9047 34.238C75.5632 34.0483 75.3039 33.7974 75.1268 33.4854C74.954 33.1734 74.8676 32.8298 74.8676 32.4546C74.8676 32.1257 74.9224 31.8306 75.032 31.5692C75.1416 31.3036 75.3102 31.0759 75.5379 30.8862C75.7656 30.6922 76.0607 30.5341 76.4233 30.4118C76.6974 30.3233 77.0178 30.2432 77.3846 30.1715C77.7556 30.0998 78.1562 30.0345 78.5862 29.9755C79.0205 29.9122 79.4737 29.8448 79.9459 29.7731L79.402 30.083C79.4062 29.6108 79.3008 29.2629 79.0858 29.0395C78.8708 28.816 78.5082 28.7043 77.998 28.7043C77.6903 28.7043 77.393 28.776 77.1063 28.9193C76.8196 29.0627 76.6194 29.3093 76.5055 29.6593L75.1142 29.2229C75.2828 28.6453 75.6033 28.1815 76.0755 27.8316C76.5519 27.4816 77.1928 27.3066 77.998 27.3066C78.6052 27.3066 79.1385 27.4057 79.5981 27.6039C80.0619 27.802 80.4055 28.1267 80.6289 28.5778C80.7512 28.8181 80.825 29.0648 80.8503 29.3177C80.8756 29.5665 80.8882 29.8384 80.8882 30.1336V34.3265H79.5538V32.8467L79.7752 33.087C79.4674 33.5803 79.1069 33.9429 78.6937 34.1748C78.2847 34.4024 77.7725 34.5163 77.1569 34.5163ZM77.4605 33.302C77.8062 33.302 78.1013 33.2409 78.3459 33.1186C78.5904 32.9963 78.7844 32.8467 78.9277 32.6696C79.0753 32.4925 79.1744 32.326 79.225 32.17C79.3051 31.976 79.3493 31.7547 79.3578 31.5059C79.3704 31.253 79.3767 31.0485 79.3767 30.8925L79.8447 31.0316C79.3852 31.1033 78.991 31.1665 78.6621 31.2213C78.3332 31.2762 78.0508 31.3289 77.8146 31.3794C77.5785 31.4258 77.3698 31.4785 77.1885 31.5376C77.0115 31.6008 76.8618 31.6746 76.7395 31.7589C76.6173 31.8432 76.5224 31.9402 76.4549 32.0498C76.3917 32.1594 76.3601 32.288 76.3601 32.4356C76.3601 32.6042 76.4022 32.7539 76.4866 32.8846C76.5709 33.0111 76.6931 33.1123 76.8534 33.1882C77.0178 33.2641 77.2202 33.302 77.4605 33.302Z" fill="#28272B"/>
<path d="M70.4853 34.3263L68.0062 27.4961H69.5304L71.2506 32.448L72.9644 27.4961H74.4949L72.0158 34.3263H70.4853Z" fill="#28272B"/>
<path d="M64.0835 34.5163C63.4005 34.5163 62.8039 34.3624 62.2937 34.0546C61.7836 33.7468 61.3873 33.3231 61.1048 32.7834C60.8265 32.2395 60.6874 31.6156 60.6874 30.9115C60.6874 30.1947 60.8307 29.5665 61.1174 29.0268C61.4041 28.4872 61.8026 28.0655 62.3127 27.762C62.8229 27.4584 63.4131 27.3066 64.0835 27.3066C64.7707 27.3066 65.3694 27.4605 65.8796 27.7683C66.3897 28.0761 66.786 28.5019 67.0685 29.0458C67.351 29.5855 67.4923 30.2074 67.4923 30.9115C67.4923 31.6198 67.3489 32.2459 67.0622 32.7898C66.7797 33.3294 66.3834 33.7531 65.8733 34.0609C65.3631 34.3645 64.7665 34.5163 64.0835 34.5163ZM64.0835 33.087C64.6906 33.087 65.1417 32.8846 65.4369 32.4799C65.732 32.0751 65.8796 31.5523 65.8796 30.9115C65.8796 30.2495 65.7299 29.7225 65.4306 29.3304C65.1312 28.9341 64.6822 28.7359 64.0835 28.7359C63.6745 28.7359 63.3372 28.8287 63.0716 29.0142C62.8102 29.1955 62.6163 29.4506 62.4898 29.7794C62.3633 30.1041 62.3001 30.4814 62.3001 30.9115C62.3001 31.5734 62.4497 32.1025 62.7491 32.4988C63.0526 32.8909 63.4974 33.087 64.0835 33.087Z" fill="#28272B"/>
<path d="M57.9847 34.326V31.0374C57.9847 30.8224 57.9699 30.5842 57.9404 30.3228C57.9109 30.0614 57.8413 29.8105 57.7317 29.5702C57.6263 29.3257 57.4661 29.1254 57.251 28.9694C57.0402 28.8134 56.7535 28.7354 56.3909 28.7354C56.197 28.7354 56.0052 28.767 55.8154 28.8303C55.6257 28.8935 55.4529 29.0031 55.2969 29.1591C55.1451 29.3109 55.0228 29.5217 54.93 29.7916C54.8373 30.0572 54.7909 30.3987 54.7909 30.8161L53.8865 30.4303C53.8865 29.8485 53.9983 29.3215 54.2217 28.8492C54.4494 28.377 54.7825 28.0018 55.221 27.7235C55.6594 27.441 56.1991 27.2998 56.84 27.2998C57.3459 27.2998 57.7633 27.3841 58.0922 27.5528C58.421 27.7214 58.6824 27.9364 58.8764 28.1978C59.0703 28.4592 59.2137 28.7375 59.3064 29.0326C59.3992 29.3278 59.4582 29.6082 59.4835 29.8738C59.513 30.1352 59.5278 30.3481 59.5278 30.5125V34.326H57.9847ZM53.2478 34.326V27.4959H54.6075V29.6145H54.7909V34.326H53.2478Z" fill="#28272B"/>
<path d="M50.0669 34.326V31.0374C50.0669 30.8224 50.0522 30.5842 50.0227 30.3228C49.9931 30.0614 49.9236 29.8105 49.814 29.5702C49.7086 29.3257 49.5483 29.1254 49.3333 28.9694C49.1225 28.8134 48.8358 28.7354 48.4732 28.7354C48.2793 28.7354 48.0874 28.767 47.8977 28.8303C47.708 28.8935 47.5351 29.0031 47.3791 29.1591C47.2273 29.3109 47.1051 29.5217 47.0123 29.7916C46.9196 30.0572 46.8732 30.3987 46.8732 30.8161L45.9688 30.4303C45.9688 29.8485 46.0806 29.3215 46.304 28.8492C46.5317 28.377 46.8648 28.0018 47.3032 27.7235C47.7417 27.441 48.2814 27.2998 48.9222 27.2998C49.4282 27.2998 49.8456 27.3841 50.1744 27.5528C50.5033 27.7214 50.7647 27.9364 50.9586 28.1978C51.1526 28.4592 51.2959 28.7375 51.3887 29.0326C51.4815 29.3278 51.5405 29.6082 51.5658 29.8738C51.5953 30.1352 51.61 30.3481 51.61 30.5125V34.326H50.0669ZM45.3301 34.326V27.4959H46.6898V29.6145H46.8732V34.326H45.3301Z" fill="#28272B"/>
<path d="M41.9242 34.3261V25.2192H43.4483V34.3261H41.9242Z" fill="#28272B"/>
<path d="M136.457 19.3905V16.1019C136.457 15.8869 136.442 15.6486 136.413 15.3872C136.383 15.1258 136.314 14.875 136.204 14.6347C136.099 14.3901 135.938 14.1899 135.723 14.0339C135.513 13.8779 135.226 13.7999 134.863 13.7999C134.669 13.7999 134.477 13.8315 134.288 13.8947C134.098 13.958 133.925 14.0676 133.769 14.2236C133.617 14.3754 133.495 14.5862 133.402 14.856C133.31 15.1216 133.263 15.4631 133.263 15.8805L132.359 15.4948C132.359 14.9129 132.471 14.3859 132.694 13.9137C132.922 13.4415 133.255 13.0662 133.693 12.788C134.132 12.5055 134.671 12.3643 135.312 12.3643C135.818 12.3643 136.236 12.4486 136.564 12.6172C136.893 12.7859 137.155 13.0009 137.349 13.2623C137.543 13.5237 137.686 13.802 137.779 14.0971C137.871 14.3922 137.93 14.6726 137.956 14.9382C137.985 15.1996 138 15.4125 138 15.577V19.3905H136.457ZM131.72 19.3905V12.5603H133.08V14.6789H133.263V19.3905H131.72Z" fill="#28272B"/>
<path d="M126.931 19.5802C126.248 19.5802 125.651 19.4263 125.141 19.1186C124.631 18.8108 124.234 18.3871 123.952 17.8474C123.674 17.3035 123.534 16.6795 123.534 15.9754C123.534 15.2587 123.678 14.6305 123.964 14.0908C124.251 13.5511 124.65 13.1295 125.16 12.826C125.67 12.5224 126.26 12.3706 126.931 12.3706C127.618 12.3706 128.216 12.5245 128.727 12.8323C129.237 13.1401 129.633 13.5659 129.916 14.1098C130.198 14.6494 130.339 15.2713 130.339 15.9754C130.339 16.6837 130.196 17.3098 129.909 17.8537C129.627 18.3934 129.23 18.8171 128.72 19.1249C128.21 19.4285 127.614 19.5802 126.931 19.5802ZM126.931 18.151C127.538 18.151 127.989 17.9486 128.284 17.5438C128.579 17.1391 128.727 16.6163 128.727 15.9754C128.727 15.3135 128.577 14.7865 128.278 14.3944C127.978 13.998 127.529 13.7999 126.931 13.7999C126.522 13.7999 126.184 13.8926 125.919 14.0781C125.657 14.2594 125.463 14.5145 125.337 14.8434C125.21 15.168 125.147 15.5454 125.147 15.9754C125.147 16.6374 125.297 17.1665 125.596 17.5628C125.9 17.9549 126.344 18.151 126.931 18.151Z" fill="#28272B"/>
<path d="M120.495 11.5231V10.1255H122.02V11.5231H120.495ZM120.495 19.3905V12.5603H122.02V19.3905H120.495Z" fill="#28272B"/>
<path d="M118.9 19.39C118.449 19.4744 118.006 19.5102 117.572 19.4976C117.142 19.4891 116.756 19.4111 116.415 19.2636C116.073 19.1118 115.814 18.8736 115.637 18.5489C115.481 18.2538 115.399 17.9523 115.39 17.6446C115.382 17.3368 115.378 16.9889 115.378 16.6011V10.6626H116.895V16.5125C116.895 16.7866 116.898 17.0269 116.902 17.2335C116.91 17.4401 116.954 17.6087 117.035 17.7394C117.186 17.9924 117.429 18.1336 117.762 18.1631C118.095 18.1927 118.474 18.1758 118.9 18.1125V19.39ZM114.138 13.7551V12.5599H118.9V13.7551H114.138Z" fill="#28272B"/>
<path d="M109.541 19.5863C109.035 19.5863 108.617 19.502 108.289 19.3333C107.96 19.1647 107.698 18.9496 107.504 18.6882C107.31 18.4268 107.167 18.1486 107.074 17.8534C106.982 17.5583 106.92 17.28 106.891 17.0186C106.866 16.753 106.853 16.538 106.853 16.3736V12.5601H108.396V15.8487C108.396 16.0595 108.411 16.2977 108.44 16.5633C108.47 16.8247 108.537 17.0777 108.643 17.3222C108.752 17.5625 108.913 17.7607 109.123 17.9167C109.338 18.0727 109.627 18.1507 109.99 18.1507C110.184 18.1507 110.376 18.1191 110.565 18.0558C110.755 17.9926 110.926 17.8851 111.077 17.7333C111.233 17.5773 111.358 17.3644 111.451 17.0945C111.543 16.8247 111.59 16.4832 111.59 16.07L112.494 16.4558C112.494 17.0376 112.38 17.5646 112.153 18.0368C111.929 18.5091 111.598 18.8864 111.16 19.1689C110.721 19.4471 110.182 19.5863 109.541 19.5863ZM111.773 19.3902V17.2716H111.59V12.5601H113.12V19.3902H111.773Z" fill="#28272B"/>
<path d="M103.561 19.3904V10.0938H105.085V19.3904H103.561Z" fill="#28272B"/>
<path d="M98.6321 19.5802C97.9491 19.5802 97.3525 19.4263 96.8423 19.1186C96.3322 18.8108 95.9358 18.3871 95.6534 17.8474C95.3751 17.3035 95.236 16.6795 95.236 15.9754C95.236 15.2587 95.3793 14.6305 95.666 14.0908C95.9527 13.5511 96.3511 13.1295 96.8613 12.826C97.3714 12.5224 97.9617 12.3706 98.6321 12.3706C99.3193 12.3706 99.918 12.5245 100.428 12.8323C100.938 13.1401 101.335 13.5659 101.617 14.1098C101.9 14.6494 102.041 15.2713 102.041 15.9754C102.041 16.6837 101.897 17.3098 101.611 17.8537C101.328 18.3934 100.932 18.8171 100.422 19.1249C99.9117 19.4285 99.3151 19.5802 98.6321 19.5802ZM98.6321 18.151C99.2392 18.151 99.6903 17.9486 99.9855 17.5438C100.281 17.1391 100.428 16.6163 100.428 15.9754C100.428 15.3135 100.278 14.7865 99.9791 14.3944C99.6798 13.998 99.2308 13.7999 98.6321 13.7999C98.2231 13.7999 97.8858 13.8926 97.6202 14.0781C97.3588 14.2594 97.1649 14.5145 97.0384 14.8434C96.9119 15.168 96.8486 15.5454 96.8486 15.9754C96.8486 16.6374 96.9983 17.1665 97.2977 17.5628C97.6012 17.9549 98.046 18.151 98.6321 18.151Z" fill="#28272B"/>
<path d="M90.7179 19.3902L88.2388 12.5601H89.7629L91.4831 17.5119L93.197 12.5601H94.7274L92.2483 19.3902H90.7179Z" fill="#28272B"/>
<path d="M81.4724 19.3901V10.2832H87.354V11.7125H82.9966V13.9576H86.595V15.3869H82.9966V17.9608H87.354V19.3901H81.4724Z" fill="#28272B"/>
<path d="M75.7467 19.3905V16.1019C75.7467 15.8869 75.732 15.6486 75.7025 15.3872C75.673 15.1258 75.6034 14.875 75.4938 14.6347C75.3884 14.3901 75.2282 14.1899 75.0131 14.0339C74.8023 13.8779 74.5156 13.7999 74.153 13.7999C73.9591 13.7999 73.7673 13.8315 73.5775 13.8947C73.3878 13.958 73.2149 14.0676 73.0589 14.2236C72.9072 14.3754 72.7849 14.5862 72.6921 14.856C72.5994 15.1216 72.553 15.4631 72.553 15.8805L71.6486 15.4948C71.6486 14.9129 71.7604 14.3859 71.9838 13.9137C72.2115 13.4415 72.5446 13.0662 72.9831 12.788C73.4215 12.5055 73.9612 12.3643 74.6021 12.3643C75.108 12.3643 75.5254 12.4486 75.8543 12.6172C76.1831 12.7859 76.4445 13.0009 76.6385 13.2623C76.8324 13.5237 76.9757 13.802 77.0685 14.0971C77.1613 14.3922 77.2203 14.6726 77.2456 14.9382C77.2751 15.1996 77.2899 15.4125 77.2899 15.577V19.3905H75.7467ZM71.0099 19.3905V12.5603H72.3696V14.6789H72.553V19.3905H71.0099Z" fill="#28272B"/>
<path d="M66.7041 19.5802C66.0127 19.5802 65.4056 19.4306 64.8828 19.1312C64.36 18.8319 63.951 18.4166 63.6559 17.8853C63.3649 17.3541 63.2195 16.7428 63.2195 16.0513C63.2195 15.3051 63.3628 14.6579 63.6495 14.1098C63.9362 13.5575 64.3347 13.1295 64.8448 12.826C65.355 12.5224 65.9452 12.3706 66.6156 12.3706C67.3239 12.3706 67.9247 12.5371 68.418 12.8702C68.9155 13.1991 69.2844 13.665 69.5247 14.2679C69.7651 14.8708 69.8557 15.5812 69.7967 16.3991H68.2852V15.8426C68.281 15.1006 68.1503 14.5588 67.8931 14.2173C67.6359 13.8758 67.2312 13.705 66.6788 13.705C66.0548 13.705 65.5911 13.899 65.2875 14.2868C64.9839 14.6705 64.8322 15.2334 64.8322 15.9754C64.8322 16.6669 64.9839 17.2023 65.2875 17.5818C65.5911 17.9612 66.0338 18.151 66.6156 18.151C66.9908 18.151 67.3134 18.0687 67.5832 17.9043C67.8573 17.7357 68.0681 17.4932 68.2156 17.177L69.7208 17.6324C69.4594 18.2479 69.0546 18.7265 68.5065 19.068C67.9627 19.4095 67.3619 19.5802 66.7041 19.5802ZM64.3515 16.3991V15.2481H69.0504V16.3991H64.3515Z" fill="#28272B"/>
<path d="M59.0954 19.5802C58.4039 19.5802 57.7968 19.4306 57.274 19.1312C56.7512 18.8319 56.3422 18.4166 56.0471 17.8853C55.7562 17.3541 55.6107 16.7428 55.6107 16.0513C55.6107 15.3051 55.7541 14.6579 56.0408 14.1098C56.3275 13.5575 56.7259 13.1295 57.236 12.826C57.7462 12.5224 58.3365 12.3706 59.0068 12.3706C59.7151 12.3706 60.3159 12.5371 60.8092 12.8702C61.3067 13.1991 61.6757 13.665 61.916 14.2679C62.1563 14.8708 62.247 15.5812 62.1879 16.3991H60.6764V15.8426C60.6722 15.1006 60.5415 14.5588 60.2843 14.2173C60.0271 13.8758 59.6224 13.705 59.0701 13.705C58.4461 13.705 57.9823 13.899 57.6787 14.2868C57.3752 14.6705 57.2234 15.2334 57.2234 15.9754C57.2234 16.6669 57.3752 17.2023 57.6787 17.5818C57.9823 17.9612 58.425 18.151 59.0068 18.151C59.3821 18.151 59.7046 18.0687 59.9744 17.9043C60.2485 17.7357 60.4593 17.4932 60.6069 17.177L62.112 17.6324C61.8506 18.2479 61.4459 18.7265 60.8978 19.068C60.3539 19.4095 59.7531 19.5802 59.0954 19.5802ZM56.7428 16.3991V15.2481H61.4417V16.3991H56.7428Z" fill="#28272B"/>
<path d="M51.0618 19.3903V12.5601H52.4088V14.2234L52.2444 14.0083C52.3287 13.7807 52.4405 13.5741 52.5796 13.3886C52.7229 13.1988 52.8937 13.0428 53.0918 12.9206C53.2605 12.8067 53.446 12.7182 53.6484 12.655C53.855 12.5875 54.0658 12.5474 54.2808 12.5348C54.4958 12.5179 54.7045 12.5264 54.9069 12.5601V13.983C54.7045 13.924 54.4705 13.9051 54.2049 13.9261C53.9435 13.9472 53.7074 14.021 53.4966 14.1475C53.2858 14.2613 53.1129 14.4068 52.978 14.5839C52.8473 14.7609 52.7503 14.9633 52.6871 15.191C52.6239 15.4144 52.5922 15.6569 52.5922 15.9183V19.3903H51.0618Z" fill="#28272B"/>
<path d="M45.5543 19.5801C44.964 19.5801 44.4096 19.4768 43.891 19.2702C43.3766 19.0594 42.9234 18.7516 42.5313 18.3469C42.1434 17.9421 41.8398 17.4467 41.6206 16.8607C41.4014 16.2704 41.2917 15.5958 41.2917 14.8369C41.2917 13.8419 41.4773 12.9924 41.8483 12.2883C42.2193 11.5799 42.7273 11.0382 43.3724 10.6629C44.0175 10.2835 44.7448 10.0938 45.5543 10.0938C46.6758 10.0938 47.5633 10.3552 48.2168 10.878C48.8745 11.3965 49.3193 12.1259 49.5512 13.0661L47.9954 13.3128C47.8226 12.7731 47.5401 12.3431 47.148 12.0226C46.7559 11.698 46.2563 11.5357 45.6491 11.5357C45.0378 11.5272 44.5298 11.6601 44.125 11.9341C43.7203 12.2082 43.4146 12.5939 43.208 13.0914C43.0056 13.5889 42.9044 14.1708 42.9044 14.8369C42.9044 15.5031 43.0056 16.0828 43.208 16.5761C43.4104 17.0652 43.7139 17.4467 44.1187 17.7208C44.5276 17.9948 45.0378 18.1361 45.6491 18.1445C46.1087 18.1487 46.5114 18.0665 46.8571 17.8979C47.2028 17.725 47.4853 17.4657 47.7045 17.12C47.9238 16.77 48.0713 16.3337 48.1472 15.8109H46.5409V14.6156H49.7662C49.7747 14.683 49.781 14.7821 49.7852 14.9128C49.7894 15.0435 49.7915 15.1215 49.7915 15.1468C49.7915 16.0069 49.6208 16.7721 49.2793 17.4425C48.942 18.1087 48.4571 18.6315 47.8247 19.0109C47.1923 19.3904 46.4355 19.5801 45.5543 19.5801Z" fill="#28272B"/>
<path fill-rule="evenodd" clip-rule="evenodd" d="M17.084 5.10841C16.6285 6.29214 15.7874 6.83097 15.0176 7.06719C14.4142 7.25234 13.7528 7.01764 13.3962 6.49685C12.6444 5.39889 12.7772 4.27603 13.144 3.39529C13.4073 2.76308 13.8931 2.25948 14.3959 1.79453L15.0742 1.16727C15.6912 0.596758 16.6943 0.903728 16.8864 1.72183L17.0802 2.54782C17.2793 3.39572 17.3968 4.29556 17.084 5.10841ZM9.8377 11.5878C10.4228 10.9579 10.9152 10.0006 10.6669 8.64597C10.5099 7.78929 9.95373 7.07545 9.34989 6.44781L7.98965 5.03394C7.69834 4.73114 7.18869 4.85507 7.06894 5.25781L6.49081 7.20218C6.29562 7.85863 6.13678 8.53895 6.22651 9.2179C6.3595 10.2243 6.84133 11.3371 8.14701 11.9259C8.72238 12.1853 9.40815 12.0502 9.8377 11.5878ZM6.41511 14.48C7.56373 15.5558 7.71564 16.7622 7.57316 17.7072C7.47906 18.3313 7.00122 18.8339 6.38398 18.9657C4.80492 19.3031 3.65362 18.5804 2.90218 17.7457C2.44396 17.2368 2.17821 16.5921 1.95798 15.9436L1.01031 13.1532C0.96527 13.0206 1.08001 12.8887 1.21759 12.9149L4.06269 13.4571C4.91824 13.6202 5.77944 13.8846 6.41511 14.48ZM8.70874 24.1411C8.19659 23.2757 7.2781 22.4176 5.64286 22.2715C4.77537 22.194 3.92909 22.4971 3.14809 22.8826L0 24.4364L2.93319 26.4284C3.49973 26.8132 4.1002 27.1649 4.77091 27.3034C5.92147 27.5409 7.34451 27.4505 8.47657 26.2385C9.00682 25.6708 9.10436 24.8097 8.70874 24.1411ZM9.46247 29.2743C11.2295 28.5274 12.6126 28.9622 13.559 29.5967C14.2043 30.0292 14.5033 30.8345 14.3041 31.5853C13.8134 33.4345 12.3937 34.2422 11.1109 34.5697C10.4474 34.7392 9.75368 34.6995 9.07443 34.6122L5.15451 34.1081L7.51852 30.9568C8.04116 30.2601 8.66024 29.6134 9.46247 29.2743ZM26.7563 32.3128C25.6807 33.1056 24.6613 34.4705 24.8308 36.7581C24.8952 37.6266 25.2794 38.432 25.7518 39.1637L28.3087 43.1245L30.4807 38.9712C30.798 38.3643 31.0714 37.7278 31.1571 37.0483C31.3496 35.5223 31.0916 33.6072 29.2721 32.3015C28.5226 31.7637 27.4989 31.7654 26.7563 32.3128ZM20.0653 32.3452C18.7551 32.3523 17.0896 32.8368 15.9635 34.8632C15.5404 35.6245 15.4304 36.5107 15.4319 37.3817L15.4397 41.7978L19.2672 39.6192C19.8624 39.2804 20.4378 38.8937 20.8735 38.3652C21.8414 37.1911 22.6202 35.4378 21.6527 33.3575C21.366 32.7412 20.745 32.3416 20.0653 32.3452ZM20.949 6.48951C21.523 6.68822 22.2467 6.74075 23.0435 6.34276C23.8226 5.95355 24.2913 5.16236 24.67 4.37809L24.7728 4.16531C25.1383 3.4086 24.5518 2.53889 23.7132 2.59413L23.3704 2.61671C22.687 2.66173 21.9866 2.74041 21.3986 3.09154C20.7684 3.46789 20.1871 4.07923 20.06 5.04696C19.9778 5.67275 20.3526 6.28301 20.949 6.48951ZM28.1666 10.0681C27.3392 10.1444 26.7257 9.86236 26.289 9.49877C25.8039 9.09494 25.6808 8.38315 26.0002 7.83877C26.4511 7.07022 27.1573 6.74745 27.827 6.63881C28.4724 6.53412 29.1214 6.71309 29.7431 6.9153L29.8049 6.9354C30.6674 7.2159 30.9068 8.3224 30.2375 8.93435C29.6429 9.47798 28.9688 9.99408 28.1666 10.0681ZM28.8955 14.2681C29.0962 14.7445 29.4759 15.2236 30.1802 15.5128C30.8029 15.7685 31.5004 15.6762 32.1563 15.5247C33 15.3298 33.3201 14.2973 32.7345 13.6594L32.7023 13.6243C32.3355 13.2248 31.9389 12.8355 31.4349 12.6351C30.8629 12.4076 30.1591 12.3219 29.4535 12.6978C28.8964 12.9945 28.6505 13.6865 28.8955 14.2681ZM28.3177 20.7072C27.983 20.1393 27.9604 19.6269 28.0661 19.206C28.2199 18.5939 28.8915 18.2261 29.4887 18.4303C30.1074 18.6418 30.4624 19.1305 30.6598 19.6012C30.7882 19.9074 30.8156 20.245 30.8198 20.577C30.8299 21.388 29.9617 21.915 29.2512 21.5239C28.883 21.3212 28.531 21.0693 28.3177 20.7072ZM23.6836 23.8886C23.4937 24.2729 23.418 24.7469 23.7154 25.2421C23.8853 25.5251 24.1854 25.695 24.4918 25.8179L24.5277 25.8323C25.2418 26.1188 26.0313 25.6404 26.1078 24.8747C26.1334 24.6192 26.1387 24.3565 26.0467 24.1168C25.8919 23.7132 25.5613 23.3086 24.8883 23.2324C24.395 23.1766 23.9036 23.4436 23.6836 23.8886Z" fill="#28272B"/>
</svg>
